<svg xmlns="http://www.w3.org/2000/svg" version="1.1" viewBox="0 0 256 256">
  <g transform="translate(0 -796.36)">
    <path d="M100,100 796.36H256V1052.3600000000001H0z" fill="#031634"/>
    <g transform="translate(780 -300)">
      <g transform="translate(-713.75 5.618) scale(1.2311)">
        <path fill="#e8ddcb" stroke="#031634" strokeLinecap="round" strokeLinejoin="round" strokeWidth="4.061" d="M89.471 1065.9c3.727 6.126-.484 10.049-6.16 12.947-8.03 4.099-27.898 2.102-34.7-2.014-6.243-3.777-9.013-9.35-6.04-14.184"/>
        <path fill="#e8ddcb" stroke="#031634" strokeLinecap="round" strokeLinejoin="round" strokeWidth="4.061" d="M-3.213 1024.9c-5.607 10.647 16.858 15.223 23.302 16.037 7.743.978 19.2 22.194 32.63 26.175 9.1 2.698 29.325 3.846 36.493-1.431 12.273-9.037 18.48-20.686 21.285-35.088.995-5.105 1.707-10.986.958-15.702-3.19-20.064-14.951-20.048-19.514-20.76-2.728-8.725-12.7-15.044-26.068-12.391-.103-10.746.225-17.365 1.112-27.536 1.483-17.013-28.072-12.04-27.471 15.265.301 13.708 6.25 36.765-1.611 54.848-15.641-13.196-30.953-18.718-41.116.583z"/>
        <path d="M63.838 981.04c.03 10.253 1.215 18.225 7.226 26.105-2.51-6.575-3.37-19.666-3.177-27.939z" fill="#031634" color="#031634"/>
        <path d="M93.471 992.23l-3.81 1.486c1.93 5.577 4.052 11.842 7.115 15.183-1.08-2.605-2.077-11.978-3.305-16.669z" fill="#031634" color="#031634"/>
        <path fill="none" stroke="#031634" strokeLinecap="round" strokeLinejoin="round" strokeWidth="4.061" d="M83.386 1059c4.939-9.25 5.143-12.031 6.826-16.832"/>
        <path fill="none" stroke="#031634" strokeLinecap="round" strokeLinejoin="round" strokeWidth="4.061" d="M73.981 1058.8c2.775-11.262 3.048-16.939 4.214-24.609"/>
        <path fill="none" stroke="#031634" strokeLinecap="round" strokeLinejoin="round" strokeWidth="4.061" d="M62.763 1058.3c.855-7.935.521-11.757.556-16.855"/>
      </g>
      <path fill="#031634" d="M-646.91 1131.5c-3.61 6.355-9.526 10.399-14.944 14.944h8.479c-.175 4.39-1.54 9.176-2.477 13.82 7.566-4.368 10.554 0 17.885 0-.826-4.61-2.391-8.974-2.509-13.82h8.51c-5.606-4.774-11.544-9.435-14.944-14.944z"/>
      <path fill="#031634" d="M-595.31 1183.1c-6.355-3.61-10.399-9.526-14.944-14.944v8.479c-4.39-.175-9.176-1.54-13.82-2.477 4.368 7.566 0 10.554 0 17.885 4.61-.826 8.974-2.391 13.82-2.509v8.51c4.774-5.606 9.435-11.544 14.944-14.943z"/>
      <path fill="#031634" d="M-698.51 1183.1c6.354 3.61 10.399 9.526 14.944 14.944v-8.479c4.39.175 9.176 1.54 13.82 2.477-4.368-7.566 0-10.554 0-17.885-4.61.826-8.974 2.391-13.82 2.509v-8.51c-4.774 5.606-9.435 11.544-14.944 14.943z"/>
    </g>
  </g>
</svg>